<?xml version="1.0" encoding="UTF-8" standalone="no"?>
<!-- Created with Inkscape (http://www.inkscape.org/) -->

<svg
   xmlns:dc="http://purl.org/dc/elements/1.1/"
   xmlns:cc="http://creativecommons.org/ns#"
   xmlns:rdf="http://www.w3.org/1999/02/22-rdf-syntax-ns#"
   xmlns:svg="http://www.w3.org/2000/svg"
   xmlns="http://www.w3.org/2000/svg"
   xmlns:sodipodi="http://sodipodi.sourceforge.net/DTD/sodipodi-0.dtd"
   xmlns:inkscape="http://www.inkscape.org/namespaces/inkscape"
   version="1.1"
   id="svg2"
   width="346.66666"
   height="314.66666"
   viewBox="0 0 346.66666 314.66666"
   sodipodi:docname="app.svg"
   inkscape:version="0.92.5 (2060ec1f9f, 2020-04-08)">
  <metadata
     id="metadata8">
    <rdf:RDF>
      <cc:Work
         rdf:about="">
        <dc:format>image/svg+xml</dc:format>
        <dc:type
           rdf:resource="http://purl.org/dc/dcmitype/StillImage" />
        <dc:title></dc:title>
      </cc:Work>
    </rdf:RDF>
  </metadata>
  <defs
     id="defs6" />
  <sodipodi:namedview
     pagecolor="#ffffff"
     bordercolor="#666666"
     borderopacity="1"
     objecttolerance="10"
     gridtolerance="10"
     guidetolerance="10"
     inkscape:pageopacity="0"
     inkscape:pageshadow="2"
     inkscape:window-width="1920"
     inkscape:window-height="1051"
     id="namedview4"
     showgrid="false"
     inkscape:zoom="1.5"
     inkscape:cx="120.48125"
     inkscape:cy="132.81354"
     inkscape:window-x="0"
     inkscape:window-y="-37"
     inkscape:window-maximized="1"
     inkscape:current-layer="svg2" />
  <path
     style="fill:#ffffff;stroke-width:1.33333325;fill-opacity:1"
     d="M 7.8999487,299.12791 C 29.778723,279.50618 63.183783,259.26719 89.002829,234.28815 l -74.77406,9.05281 C 49.378366,226.0167 71.234026,219.38489 102.89543,204.17842 86.070107,196.75582 59.663281,182.87253 46.704239,176.23253 l 101.091651,9.00452 c -0.40509,-17.88573 30.96421,-70.10498 19.07682,-75.7753 -8.07534,0.24877 -39.53705,5.85067 -53.31061,6.80994 12.26162,-8.81519 38.51514,-21.466881 48.73536,-27.490642 C 143.92682,76.39869 121.41321,61.33459 104.89543,52.257367 c 21.0372,5.456486 44.10516,9.532928 62.03375,15.013879 C 148.75481,45.177469 133.66727,28.63295 117.34938,11.591132 l 70.45913,38.52325 c 0.74046,0 3.47119,4.05 6.06831,9 2.59711,4.95 9.58876,16.996139 15.53699,26.7692 5.94822,9.77306 10.81496,18.063088 10.81496,18.422298 0,0.3592 1.57121,2.71306 3.49158,5.23079 1.92038,2.51774 3.13846,4.57771 2.70686,4.57771 -0.43162,0 0.54717,2.03151 2.17508,4.51448 1.62789,2.48295 3.9953,6.40629 5.26089,8.71852 l 2.30109,4.20405 3.69891,-2.3544 c 2.03441,-1.29492 3.99892,-2.66922 4.36559,-3.05399 0.36666,-0.38478 2.31666,-1.55002 4.33333,-2.58944 l 3.66667,-1.88984 v -2.43887 -2.43887 c -10.82128,-2.10448 -37.63268,-6.75605 -17.18176,-7.50251 9.97228,-1.99417 11.31405,-5.12149 3.36921,-7.8528 -5.49235,-1.888177 -7.02123,-2.926997 -5.92344,-4.02479 22.45724,-2.282405 43.62662,-7.507215 66.28266,-8.395863 10.70867,-2.167123 19.2614,-10.850043 28.83272,-14.431182 l 2.26416,-0.868842 -1.58097,2.954071 -1.58097,2.954071 1.58912,1.914769 c 0.87401,1.053124 2.56565,1.936348 3.75918,1.962721 l 2.17008,0.04795 -3.66666,3.002134 c -20.34891,20.638831 -36.35311,46.104641 -49.07266,73.203061 -7.43311,11.14892 -1.76072,25.66279 -20.83487,31.16481 -2.06752,0.49305 -5.25912,1.64511 -7.09245,2.56012 C 180.09738,217.16566 72.370135,280.67273 7.8999687,299.12791 Z"
     id="path819"
     inkscape:connector-curvature="0"
     sodipodi:nodetypes="ccccccccccccccssssccccccccccscccccccsccccccc" />
</svg>
